<svg xmlns="http://www.w3.org/2000/svg" viewBox="0 -0.5 19 19" shape-rendering="crispEdges">
    <path stroke="#a9a3d3" d="M9 1h1M9 2h1M9 3h1M9 6h1M8 7h2M8 8h2M7 9h2M7 10h1" />
    <path stroke="#c0baf0" d="M8 2h1M8 3h1M8 4h1M8 6h1M7 8h1M8 10h1M6 11h1" />
    <path stroke="#837cc2" d="M10 2h1M10 3h1M7 4h1M10 4h1M7 5h1M7 6h1M10 6h1M7 7h1M10 7h1M6 8h1M10 8h1M6 9h1M10 9h1M6 10h1M10 10h2" />
    <path stroke="#89c7de" d="M9 4h1M8 5h1" />
    <path stroke="#5e4195" d="M11 4h1M11 5h1M11 6h1M11 7h1M12 8h1M12 9h1M9 10h1M12 10h1" />
    <path stroke="#6d85cf" d="M9 5h1" />
    <path stroke="#5e76c3" d="M10 5h1" />
    <path stroke="#765ac1" d="M11 8h1M5 9h1M9 9h1M11 9h1M4 10h1M3 11h1M12 11h2M2 12h1" />
    <path stroke="#482b65" d="M13 9h1M14 10h1M5 11h1M15 11h1M4 12h1M9 12h1M16 12h1" />
    <path stroke="#543175" d="M5 10h1M13 10h1M4 11h1M9 11h1M14 11h1M3 12h1M14 12h2" />
    <path stroke="#fe9767" d="M7 11h2M10 11h2M8 12h1M10 12h1M9 13h1" />
    <path stroke="#8b0975" d="M5 12h1M13 12h1M6 13h1M12 13h1M7 14h1M11 14h1M8 15h1M10 15h1M9 16h1" />
    <path stroke="#ef3a64" d="M6 12h1M12 12h1M7 13h1M11 13h1M8 14h1M10 14h1M9 15h1" />
    <path stroke="#ff7161" d="M7 12h1M11 12h1M8 13h1M10 13h1M9 14h1" />
    <path stroke="#370762" d="M5 13h1M13 13h1M6 14h1M12 14h1M7 15h1M11 15h1M8 16h1M10 16h1M9 17h1" />
</svg>